<svg xmlns="http://www.w3.org/2000/svg" fill="none" viewBox="-0.5 -0.5 24 24" height="24" width="24"><path stroke="#000000" d="M11.5 3.354166666666667c-2.5520416666666668 0 -5.101208333333334 -0.181125 -7.628333333333334 -0.5424166666666667L0.9583333333333334 2.3958333333333335H0.4791666666666667v18.208333333333336H0.9583333333333334l2.9133333333333336 -0.41591666666666666A53.932125000000006 53.932125000000006 0 0 1 11.5 19.645833333333336m0 -16.291666666666668c2.5520416666666668 0 5.101208333333334 -0.181125 7.628333333333334 -0.5424166666666667L22.041666666666668 2.3958333333333335h0.4791666666666667v18.208333333333336H22.041666666666668l-2.9133333333333336 -0.41591666666666666A53.93116666666667 53.93116666666667 0 0 0 11.5 19.645833333333336m0 -16.291666666666668V8.625m0 11.020833333333334V14.375M0.4791666666666667 7.1875H0.9583333333333334a4.3125 4.3125 0 0 1 0 8.625H0.4791666666666667m22.041666666666668 0H22.041666666666668a4.3125 4.3125 0 1 1 0 -8.625h0.4791666666666667M11.5 8.625a2.875 2.875 0 1 1 0 5.75m0 -5.75a2.875 2.875 0 1 0 0 5.75" stroke-width="1"></path></svg>